# Blender v2.92.0 OBJ File: ''
# www.blender.org
mtllib fox.mtl
o Cube.006_Cube.007
v -0.824983 -0.102121 0.430606
v -0.824983 0.728871 0.430606
v -0.824983 -0.102121 0.106626
v -0.824983 0.728871 0.106626
v -0.501003 -0.102121 0.430606
v -0.501003 0.728871 0.430606
v -0.501003 -0.102121 0.106626
v -0.501003 0.728871 0.106626
v -1.088841 0.451048 0.537768
v -1.088841 1.324689 0.537768
v -1.088841 0.451048 -0.538589
v -1.088841 1.324689 -0.538589
v 0.693229 0.451048 0.537768
v 0.693229 1.324689 0.537768
v 0.693229 0.451048 -0.538589
v 0.693229 1.324689 -0.538589
v -1.967642 0.242995 0.243081
v -1.058933 1.231780 0.143665
v -1.967642 0.242995 -0.230675
v -1.058933 1.231780 -0.131259
v -1.596043 -0.050876 0.243081
v -0.843292 1.061245 0.143665
v -1.596043 -0.050876 -0.230675
v -0.843292 1.061245 -0.131259
v 0.259134 1.088670 0.468453
v 0.259134 2.026398 0.468453
v 0.259134 1.088670 -0.469274
v 0.259134 2.026398 -0.469274
v 1.196862 1.088670 0.468453
v 1.196862 2.026398 0.468453
v 1.196862 1.088670 -0.469274
v 1.196862 2.026398 -0.469274
v 0.918461 1.986671 -0.109983
v 0.968014 2.431913 -0.159536
v 0.918461 1.986671 -0.381882
v 0.968014 2.431913 -0.332329
v 1.190360 1.986671 -0.109983
v 1.140807 2.431913 -0.159536
v 1.190360 1.986671 -0.381882
v 1.140807 2.431913 -0.332329
v 0.918461 1.986671 0.381061
v 0.968014 2.431913 0.331508
v 0.918461 1.986671 0.109162
v 0.968014 2.431913 0.158715
v 1.190360 1.986671 0.381061
v 1.140807 2.431913 0.331508
v 1.190360 1.986671 0.109162
v 1.140807 2.431913 0.158715
v -0.824983 -0.102121 -0.107448
v -0.824983 0.728871 -0.107448
v -0.824983 -0.102121 -0.431427
v -0.824983 0.728871 -0.431427
v -0.501003 -0.102121 -0.107448
v -0.501003 0.728871 -0.107448
v -0.501003 -0.102121 -0.431427
v -0.501003 0.728871 -0.431427
v 0.212604 -0.102121 -0.107448
v 0.212604 0.728871 -0.107448
v 0.212604 -0.102121 -0.431427
v 0.212604 0.728871 -0.431427
v 0.536584 -0.102121 -0.107448
v 0.536584 0.728871 -0.107448
v 0.536584 -0.102121 -0.431427
v 0.536584 0.728871 -0.431427
v 0.212604 -0.102121 0.430606
v 0.212604 0.728871 0.430606
v 0.212604 -0.102121 0.106626
v 0.212604 0.728871 0.106626
v 0.536584 -0.102121 0.430606
v 0.536584 0.728871 0.430606
v 0.536584 -0.102121 0.106626
v 0.536584 0.728871 0.106626
v 1.109685 1.427547 -0.184085
v 1.109685 1.737438 -0.184085
v 1.109685 1.427547 -0.304903
v 1.109685 1.737438 -0.304903
v 1.230503 1.427547 -0.184085
v 1.230503 1.737438 -0.184085
v 1.230503 1.427547 -0.304903
v 1.230503 1.737438 -0.304903
v 1.109685 1.427547 0.304081
v 1.109685 1.737438 0.304081
v 1.109685 1.427547 0.183264
v 1.109685 1.737438 0.183264
v 1.230503 1.427547 0.304081
v 1.230503 1.737438 0.304081
v 1.230503 1.427547 0.183264
v 1.230503 1.737438 0.183264
vt 0.375000 0.000000
vt 0.625000 0.000000
vt 0.625000 0.250000
vt 0.375000 0.250000
vt 0.625000 0.500000
vt 0.375000 0.500000
vt 0.625000 0.750000
vt 0.375000 0.750000
vt 0.625000 1.000000
vt 0.375000 1.000000
vt 0.125000 0.500000
vt 0.125000 0.750000
vt 0.875000 0.500000
vt 0.875000 0.750000
vt 0.375000 0.000000
vt 0.625000 0.000000
vt 0.625000 0.250000
vt 0.375000 0.250000
vt 0.625000 0.500000
vt 0.375000 0.500000
vt 0.625000 0.750000
vt 0.375000 0.750000
vt 0.625000 1.000000
vt 0.375000 1.000000
vt 0.125000 0.500000
vt 0.125000 0.750000
vt 0.875000 0.500000
vt 0.875000 0.750000
vt 0.375000 0.000000
vt 0.625000 0.000000
vt 0.625000 0.250000
vt 0.375000 0.250000
vt 0.625000 0.500000
vt 0.375000 0.500000
vt 0.625000 0.750000
vt 0.375000 0.750000
vt 0.625000 1.000000
vt 0.375000 1.000000
vt 0.125000 0.500000
vt 0.125000 0.750000
vt 0.875000 0.500000
vt 0.875000 0.750000
vt 0.375000 0.000000
vt 0.625000 0.000000
vt 0.625000 0.250000
vt 0.375000 0.250000
vt 0.625000 0.500000
vt 0.375000 0.500000
vt 0.625000 0.750000
vt 0.375000 0.750000
vt 0.625000 1.000000
vt 0.375000 1.000000
vt 0.125000 0.500000
vt 0.125000 0.750000
vt 0.875000 0.500000
vt 0.875000 0.750000
vt 0.375000 0.000000
vt 0.625000 0.000000
vt 0.625000 0.250000
vt 0.375000 0.250000
vt 0.625000 0.500000
vt 0.375000 0.500000
vt 0.625000 0.750000
vt 0.375000 0.750000
vt 0.625000 1.000000
vt 0.375000 1.000000
vt 0.125000 0.500000
vt 0.125000 0.750000
vt 0.875000 0.500000
vt 0.875000 0.750000
vt 0.375000 0.000000
vt 0.625000 0.000000
vt 0.625000 0.250000
vt 0.375000 0.250000
vt 0.625000 0.500000
vt 0.375000 0.500000
vt 0.625000 0.750000
vt 0.375000 0.750000
vt 0.625000 1.000000
vt 0.375000 1.000000
vt 0.125000 0.500000
vt 0.125000 0.750000
vt 0.875000 0.500000
vt 0.875000 0.750000
vt 0.375000 0.000000
vt 0.625000 0.000000
vt 0.625000 0.250000
vt 0.375000 0.250000
vt 0.625000 0.500000
vt 0.375000 0.500000
vt 0.625000 0.750000
vt 0.375000 0.750000
vt 0.625000 1.000000
vt 0.375000 1.000000
vt 0.125000 0.500000
vt 0.125000 0.750000
vt 0.875000 0.500000
vt 0.875000 0.750000
vt 0.375000 0.000000
vt 0.625000 0.000000
vt 0.625000 0.250000
vt 0.375000 0.250000
vt 0.625000 0.500000
vt 0.375000 0.500000
vt 0.625000 0.750000
vt 0.375000 0.750000
vt 0.625000 1.000000
vt 0.375000 1.000000
vt 0.125000 0.500000
vt 0.125000 0.750000
vt 0.875000 0.500000
vt 0.875000 0.750000
vt 0.375000 0.000000
vt 0.625000 0.000000
vt 0.625000 0.250000
vt 0.375000 0.250000
vt 0.625000 0.500000
vt 0.375000 0.500000
vt 0.625000 0.750000
vt 0.375000 0.750000
vt 0.625000 1.000000
vt 0.375000 1.000000
vt 0.125000 0.500000
vt 0.125000 0.750000
vt 0.875000 0.500000
vt 0.875000 0.750000
vt 0.375000 0.000000
vt 0.625000 0.000000
vt 0.625000 0.250000
vt 0.375000 0.250000
vt 0.625000 0.500000
vt 0.375000 0.500000
vt 0.625000 0.750000
vt 0.375000 0.750000
vt 0.625000 1.000000
vt 0.375000 1.000000
vt 0.125000 0.500000
vt 0.125000 0.750000
vt 0.875000 0.500000
vt 0.875000 0.750000
vt 0.375000 0.000000
vt 0.625000 0.000000
vt 0.625000 0.250000
vt 0.375000 0.250000
vt 0.625000 0.500000
vt 0.375000 0.500000
vt 0.625000 0.750000
vt 0.375000 0.750000
vt 0.625000 1.000000
vt 0.375000 1.000000
vt 0.125000 0.500000
vt 0.125000 0.750000
vt 0.875000 0.500000
vt 0.875000 0.750000
vn -1.0000 0.0000 0.0000
vn 0.0000 0.0000 -1.0000
vn 1.0000 0.0000 0.0000
vn 0.0000 0.0000 1.0000
vn 0.0000 -1.0000 0.0000
vn 0.0000 1.0000 0.0000
vn -0.7363 0.6767 0.0000
vn 0.0459 0.0581 -0.9973
vn 0.8281 -0.5605 0.0000
vn 0.0459 0.0581 0.9973
vn -0.6203 -0.7844 0.0000
vn 0.6203 0.7844 0.0000
vn -0.9939 0.1106 0.0000
vn 0.0000 0.1106 -0.9939
vn 0.9939 0.1106 0.0000
vn 0.0000 0.1106 0.9939
usemtl None
s off
f 1/1/1 2/2/1 4/3/1 3/4/1
f 3/4/2 4/3/2 8/5/2 7/6/2
f 7/6/3 8/5/3 6/7/3 5/8/3
f 5/8/4 6/7/4 2/9/4 1/10/4
f 3/11/5 7/6/5 5/8/5 1/12/5
f 8/5/6 4/13/6 2/14/6 6/7/6
f 9/15/1 10/16/1 12/17/1 11/18/1
f 11/18/2 12/17/2 16/19/2 15/20/2
f 15/20/3 16/19/3 14/21/3 13/22/3
f 13/22/4 14/21/4 10/23/4 9/24/4
f 11/25/5 15/20/5 13/22/5 9/26/5
f 16/19/6 12/27/6 10/28/6 14/21/6
f 17/29/7 18/30/7 20/31/7 19/32/7
f 19/32/8 20/31/8 24/33/8 23/34/8
f 23/34/9 24/33/9 22/35/9 21/36/9
f 21/36/10 22/35/10 18/37/10 17/38/10
f 19/39/11 23/34/11 21/36/11 17/40/11
f 24/33/12 20/41/12 18/42/12 22/35/12
f 25/43/1 26/44/1 28/45/1 27/46/1
f 27/46/2 28/45/2 32/47/2 31/48/2
f 31/48/3 32/47/3 30/49/3 29/50/3
f 29/50/4 30/49/4 26/51/4 25/52/4
f 27/53/5 31/48/5 29/50/5 25/54/5
f 32/47/6 28/55/6 26/56/6 30/49/6
f 33/57/13 34/58/13 36/59/13 35/60/13
f 35/60/14 36/59/14 40/61/14 39/62/14
f 39/62/15 40/61/15 38/63/15 37/64/15
f 37/64/16 38/63/16 34/65/16 33/66/16
f 35/67/5 39/62/5 37/64/5 33/68/5
f 40/61/6 36/69/6 34/70/6 38/63/6
f 41/71/13 42/72/13 44/73/13 43/74/13
f 43/74/14 44/73/14 48/75/14 47/76/14
f 47/76/15 48/75/15 46/77/15 45/78/15
f 45/78/16 46/77/16 42/79/16 41/80/16
f 43/81/5 47/76/5 45/78/5 41/82/5
f 48/75/6 44/83/6 42/84/6 46/77/6
f 49/85/1 50/86/1 52/87/1 51/88/1
f 51/88/2 52/87/2 56/89/2 55/90/2
f 55/90/3 56/89/3 54/91/3 53/92/3
f 53/92/4 54/91/4 50/93/4 49/94/4
f 51/95/5 55/90/5 53/92/5 49/96/5
f 56/89/6 52/97/6 50/98/6 54/91/6
f 57/99/1 58/100/1 60/101/1 59/102/1
f 59/102/2 60/101/2 64/103/2 63/104/2
f 63/104/3 64/103/3 62/105/3 61/106/3
f 61/106/4 62/105/4 58/107/4 57/108/4
f 59/109/5 63/104/5 61/106/5 57/110/5
f 64/103/6 60/111/6 58/112/6 62/105/6
f 65/113/1 66/114/1 68/115/1 67/116/1
f 67/116/2 68/115/2 72/117/2 71/118/2
f 71/118/3 72/117/3 70/119/3 69/120/3
f 69/120/4 70/119/4 66/121/4 65/122/4
f 67/123/5 71/118/5 69/120/5 65/124/5
f 72/117/6 68/125/6 66/126/6 70/119/6
f 73/127/1 74/128/1 76/129/1 75/130/1
f 75/130/2 76/129/2 80/131/2 79/132/2
f 79/132/3 80/131/3 78/133/3 77/134/3
f 77/134/4 78/133/4 74/135/4 73/136/4
f 75/137/5 79/132/5 77/134/5 73/138/5
f 80/131/6 76/139/6 74/140/6 78/133/6
f 81/141/1 82/142/1 84/143/1 83/144/1
f 83/144/2 84/143/2 88/145/2 87/146/2
f 87/146/3 88/145/3 86/147/3 85/148/3
f 85/148/4 86/147/4 82/149/4 81/150/4
f 83/151/5 87/146/5 85/148/5 81/152/5
f 88/145/6 84/153/6 82/154/6 86/147/6
