# Blender v2.92.0 OBJ File: ''
# www.blender.org
mtllib NewImprovedRabbit.mtl
o Cube.004_Cube.005
v 0.720147 0.213500 -0.065454
v 0.720147 0.501500 -0.065454
v 0.720147 0.213500 -0.255454
v 0.720147 0.501500 -0.255454
v 0.720147 0.213500 0.255453
v 0.720147 0.501500 0.255453
v 0.720147 0.213500 0.065453
v 0.720147 0.501500 0.065453
v 0.634428 0.213500 -0.065454
v 0.634428 0.213500 -0.255454
v 0.634428 0.213500 0.255453
v 0.634428 0.213500 0.065453
v 0.634428 0.501500 0.255453
v 0.634428 0.501500 -0.255454
v 0.634428 0.501500 -0.065454
v 0.634428 0.501500 0.065453
v -0.627155 -0.644108 0.500885
v -0.627155 0.356131 0.500885
v -0.627155 -0.644108 -0.500885
v -0.627155 0.356131 -0.500885
v 0.377141 -0.644108 0.500885
v 0.377141 0.356131 0.500885
v 0.377141 -0.644108 -0.500885
v 0.377141 0.356131 -0.500885
v -0.173833 0.634025 0.403114
v -0.173833 0.634025 -0.403115
v 0.634428 -0.170970 0.403114
v 0.634428 0.634025 0.403114
v 0.634428 -0.170970 -0.403115
v 0.634428 0.634025 -0.403115
v 0.377141 -0.170970 -0.403115
v 0.377141 -0.170970 0.403114
v 0.377141 0.356131 0.403114
v 0.377141 0.356131 -0.403115
v -0.173833 0.356131 -0.403115
v -0.173833 0.356131 0.403114
v 0.338422 1.068733 -0.081730
v 0.338422 1.068733 -0.318978
v 0.576268 1.068733 -0.081730
v 0.576268 1.068733 -0.318978
v 0.338422 1.068733 0.318978
v 0.338422 1.068733 0.081730
v 0.576268 1.068733 0.318978
v 0.576268 1.068733 0.081730
v 0.338422 0.634025 0.081730
v 0.338422 0.634025 -0.081730
v 0.338422 0.634025 -0.318978
v 0.576268 0.634025 0.318978
v 0.576268 0.634025 -0.081730
v 0.576268 0.634025 -0.318978
v 0.576268 0.634025 0.081730
v 0.338422 0.634025 0.318978
vt 0.375000 0.500000
vt 0.625000 0.500000
vt 0.625000 0.750000
vt 0.375000 0.750000
vt 0.375000 0.500000
vt 0.625000 0.500000
vt 0.625000 0.750000
vt 0.375000 0.750000
vt 0.494401 0.580087
vt 0.494401 0.613492
vt 0.583843 0.613492
vt 0.583843 0.580087
vt 0.583843 0.636508
vt 0.494401 0.636508
vt 0.494401 0.669913
vt 0.583843 0.669913
vt 0.375000 0.301576
vt 0.625000 0.301576
vt 0.375000 0.948424
vt 0.625000 0.948424
vt 0.176576 0.500000
vt 0.176576 0.750000
vt 0.823424 0.750000
vt 0.823424 0.500000
vt 0.375000 0.301576
vt 0.625000 0.301576
vt 0.625000 0.948424
vt 0.375000 0.948424
vt 0.176576 0.500000
vt 0.176576 0.750000
vt 0.823424 0.750000
vt 0.823424 0.500000
vt 0.375000 0.000000
vt 0.625000 0.000000
vt 0.625000 0.250000
vt 0.375000 0.250000
vt 0.625000 0.500000
vt 0.375000 0.500000
vt 0.625000 0.750000
vt 0.375000 0.750000
vt 0.625000 1.000000
vt 0.375000 1.000000
vt 0.125000 0.500000
vt 0.125000 0.750000
vt 0.875000 0.500000
vt 0.875000 0.750000
vt 0.375000 0.500000
vt 0.625000 0.500000
vt 0.625000 0.750000
vt 0.375000 0.750000
vt 0.875000 0.500000
vt 0.875000 0.750000
vt 0.493256 0.524400
vt 0.493256 0.725601
vt 0.625000 0.725600
vt 0.625000 0.524400
vt 0.762154 0.725600
vt 0.762154 0.524399
vt 0.538697 0.000000
vt 0.625000 0.000000
vt 0.625000 0.250000
vt 0.538697 0.250000
vt 0.375000 0.420420
vt 0.538697 0.420420
vt 0.625000 1.000000
vt 0.538697 1.000000
vt 0.538697 0.829581
vt 0.375000 0.829580
vt 0.295420 0.500000
vt 0.295420 0.750000
vt 0.625000 0.500000
vt 0.875000 0.500000
vt 0.875000 0.750000
vt 0.625000 0.750000
vt 0.625000 0.500000
vt 0.875000 0.500000
vt 0.875000 0.750000
vt 0.625000 0.750000
vt 0.716556 0.723911
vt 0.716556 0.650343
vt 0.642989 0.650343
vt 0.642989 0.723911
vt 0.642989 0.599657
vt 0.716556 0.599657
vt 0.716556 0.526089
vt 0.642989 0.526089
vt 0.453655 0.000000
vt 0.625000 0.000000
vt 0.625000 0.250000
vt 0.453655 0.250000
vt 0.453655 0.500000
vt 0.453655 0.750000
vt 0.625000 1.000000
vt 0.453655 1.000000
vt 0.453655 0.000000
vt 0.625000 0.000000
vt 0.625000 0.250000
vt 0.453655 0.250000
vt 0.453655 0.500000
vt 0.453655 0.750000
vt 0.625000 1.000000
vt 0.453655 1.000000
vn 1.0000 0.0000 0.0000
vn -1.0000 0.0000 0.0000
vn 0.0000 0.0000 -1.0000
vn 0.0000 0.0000 1.0000
vn 0.0000 -1.0000 0.0000
vn 0.0000 1.0000 0.0000
usemtl None
s off
f 3/1/1 4/2/1 2/3/1 1/4/1
f 7/5/1 8/6/1 6/7/1 5/8/1
f 10/9/2 9/10/2 15/11/2 14/12/2
f 16/13/2 12/14/2 11/15/2 13/16/2
f 4/2/3 3/1/3 10/17/3 14/18/3
f 9/19/4 1/4/4 2/3/4 15/20/4
f 10/21/5 3/1/5 1/4/5 9/22/5
f 15/23/6 2/3/6 4/2/6 14/24/6
f 8/6/3 7/5/3 12/25/3 16/26/3
f 5/8/4 6/7/4 13/27/4 11/28/4
f 12/29/5 7/5/5 5/8/5 11/30/5
f 13/31/6 6/7/6 8/6/6 16/32/6
f 17/33/2 18/34/2 20/35/2 19/36/2
f 19/36/3 20/35/3 24/37/3 23/38/3
f 23/38/1 24/37/1 22/39/1 21/40/1
f 21/40/4 22/39/4 18/41/4 17/42/4
f 19/43/5 23/38/5 21/40/5 17/44/5
f 24/37/6 20/45/6 18/46/6 22/39/6
f 29/47/1 30/48/1 28/49/1 27/50/1
f 30/48/6 26/51/6 25/52/6 28/49/6
f 31/53/2 32/54/2 33/55/2 34/56/2
f 34/56/5 33/55/5 36/57/5 35/58/5
f 36/59/2 25/60/2 26/61/2 35/62/2
f 26/61/3 30/48/3 29/47/3 31/63/3 34/64/3 35/62/3
f 27/50/4 28/49/4 25/65/4 36/66/4 33/67/4 32/68/4
f 31/69/5 29/47/5 27/50/5 32/70/5
f 40/71/6 38/72/6 37/73/6 39/74/6
f 44/75/6 42/76/6 41/77/6 43/78/6
f 52/79/5 45/80/5 51/81/5 48/82/5
f 49/83/5 46/84/5 47/85/5 50/86/5
f 46/87/2 37/88/2 38/89/2 47/90/2
f 47/90/3 38/89/3 40/71/3 50/91/3
f 50/91/1 40/71/1 39/74/1 49/92/1
f 49/92/4 39/74/4 37/93/4 46/94/4
f 52/95/2 41/96/2 42/97/2 45/98/2
f 45/98/3 42/97/3 44/75/3 51/99/3
f 51/99/1 44/75/1 43/78/1 48/100/1
f 48/100/4 43/78/4 41/101/4 52/102/4
